<?xml version="1.0" standalone="no"?>
<!DOCTYPE svg PUBLIC "-//W3C//DTD SVG 20010904//EN"
 "http://www.w3.org/TR/2001/REC-SVG-20010904/DTD/svg10.dtd">
<svg version="1.0" xmlns="http://www.w3.org/2000/svg"
 width="890.000000pt" height="888.000000pt" viewBox="0 0 890.000000 888.000000"
 preserveAspectRatio="xMidYMid meet">

<g transform="translate(0.000000,888.000000) scale(0.100000,-0.100000)"
fill="#000000" stroke="none">
<path d="M4120 8789 c-1452 -110 -2746 -928 -3471 -2194 -508 -887 -686 -1964
-493 -2980 317 -1663 1580 -3002 3220 -3414 173 -43 456 -92 649 -113 158 -17
682 -17 840 0 993 106 1853 497 2574 1170 521 486 928 1126 1155 1817 226 686
276 1456 140 2175 -310 1651 -1563 2991 -3188 3410 -268 69 -509 108 -796 130
-154 11 -474 11 -630 -1z m-1694 -3398 c20 -12 37 -34 44 -55 24 -74 -44 -149
-182 -202 -40 -15 -79 -35 -86 -43 -7 -9 -40 -101 -73 -206 -120 -378 -192
-582 -234 -667 l-44 -87 175 -170 c255 -249 351 -310 484 -311 77 0 155 31
188 76 48 63 51 65 81 35 59 -59 -92 -184 -240 -197 -162 -16 -291 61 -584
347 l-150 147 -47 -43 c-142 -129 -348 -132 -421 -7 -45 77 -12 206 65 262 81
59 193 49 306 -27 37 -24 70 -47 74 -49 14 -9 89 169 147 348 109 336 170 532
166 537 -3 2 -68 -6 -145 -18 -316 -50 -441 -104 -496 -217 -22 -44 -26 -64
-22 -108 7 -89 46 -127 150 -150 37 -8 47 -44 19 -68 -26 -20 -64 -16 -129 14
-148 69 -170 301 -40 431 90 90 240 142 549 188 l157 23 30 61 c73 147 174
207 258 156z m602 -68 c2 -29 -4 -56 -22 -90 -53 -104 -203 -293 -232 -293
-31 0 -23 33 40 157 35 70 74 153 86 183 30 75 46 92 89 88 34 -3 36 -5 39
-45z m4224 -243 c59 -108 69 -144 43 -154 -27 -10 -43 4 -92 80 -26 40 -51 74
-54 74 -3 0 -51 -31 -105 -70 -55 -38 -107 -70 -116 -70 -25 0 -43 37 -27 56
7 8 64 56 128 105 87 67 122 89 141 87 20 -2 35 -22 82 -108z m-639 -48 c35
-30 7 -112 -39 -112 -19 0 -56 19 -66 34 -14 20 -8 63 10 78 33 29 60 29 95 0z
m-2030 -71 c65 -25 89 -94 63 -182 -9 -29 -16 -54 -16 -56 0 -8 108 -51 177
-72 39 -12 76 -28 83 -36 10 -13 0 -53 -58 -228 -80 -237 -94 -312 -68 -352
20 -31 65 -33 110 -5 61 37 139 170 215 363 27 71 68 159 90 197 105 177 240
263 361 230 89 -24 124 -97 95 -198 -33 -113 -183 -222 -397 -287 -48 -15 -89
-34 -92 -42 -3 -8 -9 -45 -12 -82 -12 -129 48 -201 168 -201 106 0 190 46 265
145 56 75 84 129 128 251 104 291 314 474 468 406 66 -29 90 -80 85 -176 -6
-108 -48 -177 -97 -161 -31 9 -32 31 -6 87 27 58 32 107 14 141 -17 31 -28 37
-75 37 -132 0 -323 -294 -341 -526 -5 -57 -2 -79 15 -117 30 -69 69 -89 157
-84 180 10 297 140 409 453 131 365 137 376 181 356 14 -6 25 -17 25 -24 0 -7
-39 -121 -86 -253 -131 -369 -153 -460 -124 -516 13 -23 59 -25 99 -4 65 33
167 198 227 366 50 140 113 248 194 330 87 88 148 116 227 105 92 -12 136 -62
135 -152 -3 -132 -159 -262 -405 -339 -83 -26 -87 -29 -97 -64 -16 -58 -12
-142 9 -181 10 -19 36 -45 57 -58 34 -20 50 -22 114 -19 46 2 88 11 109 21 82
43 181 165 237 293 21 47 27 53 54 53 65 0 45 -77 -62 -235 -85 -127 -179
-194 -306 -216 -126 -22 -231 26 -283 131 -16 30 -28 50 -29 43 0 -20 -79
-112 -119 -138 -112 -75 -223 -44 -252 69 l-12 47 -44 -45 c-56 -54 -128 -91
-212 -106 -151 -27 -263 39 -295 173 l-7 29 -59 -64 c-69 -76 -148 -122 -240
-139 -128 -23 -241 25 -283 122 -12 26 -25 49 -29 49 -3 0 -16 -16 -28 -35
-39 -63 -115 -123 -174 -136 -48 -10 -58 -10 -92 7 -114 56 -112 164 10 523
20 58 35 105 33 106 -2 2 -178 64 -191 68 -7 2 -90 -171 -170 -358 -35 -80
-117 -174 -180 -204 -55 -27 -138 -28 -190 -2 l-38 20 -58 -60 c-71 -72 -144
-109 -217 -109 -65 0 -102 13 -129 46 l-21 26 -58 -164 c-143 -400 -127 -363
-159 -363 -56 0 -54 16 33 259 44 125 81 229 81 231 0 2 -23 -6 -52 -17 -94
-36 -173 0 -197 90 l-11 40 -53 -52 c-89 -89 -171 -113 -246 -74 -70 36 -86
78 -85 213 1 87 7 128 27 196 80 266 223 452 364 475 55 8 118 -11 162 -51
l38 -35 17 45 c21 54 51 68 78 36 17 -22 16 -25 -8 -89 -147 -389 -204 -569
-204 -646 0 -59 12 -76 52 -76 44 0 84 25 128 82 58 73 107 181 205 453 48
132 93 250 101 263 27 42 81 17 71 -33 l-4 -26 21 20 c63 59 178 78 237 38
112 -74 98 -321 -33 -581 l-30 -60 22 -18 c48 -39 148 -7 202 64 25 32 218
445 218 465 0 6 -11 18 -25 27 -56 37 -82 144 -51 205 15 28 67 60 98 61 9 0
28 -4 41 -9z m1225 -1408 c3 -22 0 -23 -52 -23 l-56 0 0 -215 0 -215 -25 0
-25 0 0 215 0 215 -55 0 c-47 0 -55 3 -55 18 0 10 3 22 7 26 4 3 63 5 132 4
122 -3 126 -4 129 -25z m660 -40 l3 -63 39 0 c33 0 40 -3 40 -20 0 -17 -7 -20
-40 -20 l-40 0 0 -118 c0 -127 7 -145 55 -154 25 -4 34 -48 10 -48 -29 0 -82
28 -99 51 -14 20 -16 55 -16 232 l0 208 23 -3 c20 -3 22 -9 25 -65z m-343 -87
c65 -50 92 -146 62 -219 -22 -52 -88 -104 -142 -113 -163 -24 -272 178 -162
303 43 49 80 64 149 60 43 -2 65 -10 93 -31z m265 11 c0 -17 -8 -25 -32 -32
-53 -16 -68 -59 -68 -192 l0 -113 -25 0 -25 0 0 175 0 175 25 0 c17 0 25 -6
25 -17 0 -14 2 -15 18 -1 39 34 82 37 82 5z m484 -10 c61 -47 76 -89 76 -217
l0 -110 -25 0 c-20 0 -25 5 -25 26 l0 26 -30 -26 c-95 -80 -263 -9 -277 118
-10 89 19 152 92 198 46 29 141 21 189 -15z m307 4 c36 -37 39 -71 6 -71 -16
0 -28 9 -35 25 -8 18 -19 25 -40 25 -34 0 -52 -16 -52 -47 0 -25 26 -45 81
-62 46 -15 68 -39 75 -82 18 -109 -115 -172 -188 -89 -37 40 -38 80 -3 80 18
0 25 -5 25 -19 0 -22 35 -51 62 -51 24 0 58 35 58 60 0 26 -33 55 -80 69 -55
16 -80 46 -80 94 0 55 43 97 100 97 33 0 48 -6 71 -29z"/>
<path d="M2319 5307 c-33 -28 -73 -86 -65 -94 10 -11 86 30 111 59 43 51 5 79
-46 35z"/>
<path d="M1480 4217 c-77 -27 -106 -133 -51 -188 25 -24 38 -29 78 -29 70 0
134 25 189 73 l46 41 -33 27 c-42 34 -124 76 -164 83 -16 3 -46 0 -65 -7z"/>
<path d="M4514 4866 c-8 -20 1 -55 20 -81 20 -27 30 -13 30 43 1 41 -2 47 -22
50 -13 2 -25 -3 -28 -12z"/>
<path d="M4002 4733 c-59 -29 -129 -120 -192 -248 -129 -266 -166 -421 -111
-466 13 -10 35 -19 50 -19 45 0 129 49 174 101 l42 49 0 98 c0 110 10 135 54
130 22 -2 27 -9 29 -38 l4 -35 23 57 c36 89 55 178 55 262 0 68 -3 80 -25 101
-28 29 -57 31 -103 8z"/>
<path d="M3191 4712 c-122 -82 -251 -367 -254 -562 -2 -107 14 -140 69 -140
82 0 158 80 243 255 93 190 145 336 137 381 -18 91 -111 122 -195 66z"/>
<path d="M5405 4721 c-44 -27 -107 -98 -149 -170 -41 -71 -69 -132 -62 -139 7
-6 106 33 186 73 77 39 143 93 166 136 21 41 18 96 -5 109 -31 16 -103 12
-136 -9z"/>
<path d="M6952 4713 c-54 -38 -110 -107 -160 -202 -48 -91 -51 -105 -19 -96
121 37 268 121 312 179 34 45 44 106 20 129 -27 28 -104 22 -153 -10z"/>
<path d="M5946 3389 c-82 -65 -72 -190 19 -233 66 -32 134 -5 171 66 18 34 18
70 0 113 -29 69 -133 99 -190 54z"/>
<path d="M6679 3371 c-35 -34 -39 -44 -39 -87 0 -61 25 -105 73 -127 46 -22
75 -21 115 3 64 39 86 106 58 174 -21 51 -60 76 -119 76 -44 0 -53 -4 -88 -39z"/>
</g>
</svg>
